<svg width="456" height="168" viewBox="0 0 456 168" fill="none" xmlns="http://www.w3.org/2000/svg">
<g clip-path="url(#clip0_55_630)">
<path fill-rule="evenodd" clip-rule="evenodd" d="M43.4193 84.9967L13.5328 66.3572C13.5328 66.3572 9.08768 61.2738 16.2918 59.117H70.701L102.274 26.6129C102.274 26.6129 107.025 24.6104 108.864 27.8448L112.236 64.8161L167.412 64.9703C167.412 64.9703 173.236 67.1271 167.412 70.9778L114.842 95.6878C114.842 95.6878 126.791 128.745 126.334 141.993C126.334 141.993 124.957 145.152 118.98 146.999C118.98 146.999 84.5714 132.596 73.7663 102.865C73.7663 102.865 74.226 95.4706 81.0464 100.093C81.0464 100.093 93.0786 121.812 113.615 130.671C113.615 130.671 114.458 121.12 107.944 97.6274C107.944 97.6274 106.679 90.8933 112.146 89.5937C112.225 89.5747 112.307 89.5565 112.39 89.5402C118.137 88.3847 151.702 72.5176 151.702 72.5176L108.787 69.5138C108.787 69.5138 95.147 76.2148 97.1393 61.1953L101.124 36.6247L76.2951 60.579C76.2951 60.579 72.3097 65.5081 64.8768 66.0473L29.2427 67.2799L54.3018 82.6079C54.3018 82.6079 55.9873 83.9177 53.5736 85.2267L30.0087 113.643C30.0087 113.643 51.3894 102.731 71.2375 103.26C71.2375 103.26 73.5361 107.17 71.3902 110.833C71.3902 110.833 47.0978 111.184 12.9963 133.29C12.9963 133.29 4.72 132.365 9.47134 124.971L43.4193 84.996V84.9967Z" fill="#00B5CC"/>
<path fill-rule="evenodd" clip-rule="evenodd" d="M46.6763 95.5957C51.7918 99.2929 54.8376 94.5559 54.8376 94.5559C50.3548 95.018 48.6303 93.1697 48.6303 93.1697C45.1821 91.6103 42.6533 92.6502 42.6533 92.6502C40.9867 93.69 42.1936 94.9605 42.1936 94.9605C45.24 94.3834 46.6763 95.5957 46.6763 95.5957Z" fill="#000100"/>
<path fill-rule="evenodd" clip-rule="evenodd" d="M63.1139 96.7513C62.0222 96.0579 61.3323 97.3291 61.3323 97.3291C61.5046 106.919 74.609 107.612 74.609 107.612C80.3565 106.918 85.0116 110.615 85.0116 110.615C87.3109 112.811 87.8857 110.962 87.8857 110.962C85.299 105.474 76.7932 103.972 76.7932 103.972C67.5974 104.029 63.1139 96.7506 63.1139 96.7506V96.7513Z" fill="#000100"/>
<path fill-rule="evenodd" clip-rule="evenodd" d="M105.875 116.681C100.358 115.93 97.5991 112.868 97.5991 112.868C95.8174 112.637 96.1621 114.37 96.1621 114.37C99.6682 120.551 107.485 121.302 107.485 121.302C111.488 121.078 113.117 123.151 113.117 123.151C114.956 124.653 115.243 123.151 115.243 123.151C114.381 118.067 105.875 116.681 105.875 116.681Z" fill="black"/>
<path fill-rule="evenodd" clip-rule="evenodd" d="M127.493 122.878C120.424 127.846 109.331 122.333 109.331 122.333C86.5141 109.251 72.3179 109.014 72.3179 109.014C53.3516 109.36 43.2734 97.6916 43.2734 97.6916C42.0841 97.306 41.7415 98.6157 41.7415 98.6157C48.0066 113.635 80.2496 115.137 80.2496 115.137C93.2961 117.679 107.722 125.189 107.722 125.189C124.907 132.756 129.045 124.611 129.045 124.611C129.448 122.878 127.493 122.878 127.493 122.878Z" fill="#000100"/>
<path fill-rule="evenodd" clip-rule="evenodd" d="M52.1555 90.7431C55.7572 95.1723 61.5437 94.0168 61.5437 94.0168C64.1109 94.1711 65.1447 95.9808 65.1447 95.9808C68.0572 96.9056 71.2369 94.0933 71.2759 90.8588C71.2766 90.8067 71.2779 90.756 71.2793 90.7053C71.387 87.7089 73.5564 86.8416 73.7132 86.7828C82.1302 93.9634 88.5185 102.412 88.5185 102.412C101.317 121.902 123.233 115.661 123.233 115.661L124.383 113.967C127.295 102.645 110.972 89.8589 110.972 89.8589C87.906 63.0545 98.0979 47.0337 98.0979 47.0337L95.7986 46.6488C83.9206 74.8388 109.056 94.6595 109.056 94.6595C122.773 104.467 121.47 112.848 121.47 112.848C107.14 115.58 98.0972 105.417 98.0972 105.417C79.1585 78.8106 57.9265 74.2752 54.5994 73.7137C54.8269 64.6456 59.6274 60.5128 59.6274 60.5128C71.8117 50.5767 74.5707 38.8695 74.5707 38.8695L70.4325 37.9453C68.0565 43.4137 63.3052 47.8043 63.3052 47.8043C51.8102 57.2012 51.2744 77.3812 51.2744 77.3812C48.5154 89.936 52.1555 90.7445 52.1555 90.7445V90.7431ZM54.8377 78.1504C54.7839 77.7302 54.7408 77.3209 54.7051 76.9171C60.907 77.4157 67.5652 81.604 73.3208 86.4486L72.1954 85.5441C68.1333 86.0061 68.2107 91.7058 68.2107 91.7058C68.3635 94.7867 66.3711 94.0933 66.3711 94.0933C64.2253 89.1635 56.8684 90.1654 56.8684 90.1654C55.3358 90.4732 53.7264 88.9328 53.7264 88.9328C52.2706 86.1604 54.8377 78.1497 54.8377 78.1497V78.1504Z" fill="#000100"/>
</g>
<path d="M411.964 111.615C411.964 112.815 411.654 113.825 411.034 114.645C410.414 115.445 409.574 116.055 408.514 116.475C407.474 116.895 406.334 117.105 405.094 117.105H394.804V95.805H406.204C407.204 95.805 408.064 96.075 408.784 96.615C409.524 97.135 410.084 97.815 410.464 98.655C410.864 99.475 411.064 100.335 411.064 101.235C411.064 102.255 410.804 103.225 410.284 104.145C409.764 105.065 409.004 105.745 408.004 106.185C409.224 106.545 410.184 107.195 410.884 108.135C411.604 109.075 411.964 110.235 411.964 111.615ZM407.794 110.835C407.794 110.295 407.684 109.815 407.464 109.395C407.244 108.955 406.944 108.615 406.564 108.375C406.204 108.115 405.784 107.985 405.304 107.985H398.944V113.595H405.094C405.594 113.595 406.044 113.475 406.444 113.235C406.864 112.975 407.194 112.635 407.434 112.215C407.674 111.795 407.794 111.335 407.794 110.835ZM398.944 99.345V104.715H404.464C404.924 104.715 405.344 104.605 405.724 104.385C406.104 104.165 406.404 103.855 406.624 103.455C406.864 103.055 406.984 102.575 406.984 102.015C406.984 101.475 406.874 101.005 406.654 100.605C406.454 100.205 406.174 99.895 405.814 99.675C405.474 99.455 405.084 99.345 404.644 99.345H398.944Z" fill="black"/>
<path d="M381.335 117.255C379.635 117.255 378.185 116.975 376.985 116.415C375.805 115.835 374.845 115.045 374.105 114.045C373.385 113.045 372.855 111.915 372.515 110.655C372.175 109.375 372.005 108.045 372.005 106.665V95.805H376.145V106.665C376.145 107.545 376.225 108.405 376.385 109.245C376.565 110.065 376.855 110.805 377.255 111.465C377.655 112.125 378.185 112.645 378.845 113.025C379.505 113.405 380.325 113.595 381.305 113.595C382.305 113.595 383.135 113.405 383.795 113.025C384.475 112.625 385.005 112.095 385.385 111.435C385.785 110.775 386.075 110.035 386.255 109.215C386.435 108.375 386.525 107.525 386.525 106.665V95.805H390.635V106.665C390.635 108.125 390.455 109.495 390.095 110.775C389.755 112.055 389.205 113.185 388.445 114.165C387.705 115.125 386.745 115.885 385.565 116.445C384.385 116.985 382.975 117.255 381.335 117.255Z" fill="black"/>
<path d="M355.342 117.105V95.805H359.482V113.475H370.342V117.105H355.342Z" fill="black"/>
<path d="M333.485 106.305C333.485 105.005 333.715 103.735 334.175 102.495C334.655 101.235 335.345 100.095 336.245 99.075C337.145 98.035 338.245 97.215 339.545 96.615C340.845 95.995 342.325 95.685 343.985 95.685C345.945 95.685 347.635 96.115 349.055 96.975C350.495 97.835 351.565 98.955 352.265 100.335L349.085 102.525C348.725 101.725 348.255 101.095 347.675 100.635C347.095 100.155 346.475 99.825 345.815 99.645C345.155 99.445 344.505 99.345 343.865 99.345C342.825 99.345 341.915 99.555 341.135 99.975C340.375 100.395 339.735 100.945 339.215 101.625C338.695 102.305 338.305 103.065 338.045 103.905C337.805 104.745 337.685 105.585 337.685 106.425C337.685 107.365 337.835 108.275 338.135 109.155C338.435 110.015 338.855 110.785 339.395 111.465C339.955 112.125 340.615 112.655 341.375 113.055C342.155 113.435 343.005 113.625 343.925 113.625C344.585 113.625 345.255 113.515 345.935 113.295C346.615 113.075 347.245 112.725 347.825 112.245C348.405 111.765 348.855 111.145 349.175 110.385L352.565 112.335C352.145 113.395 351.455 114.295 350.495 115.035C349.555 115.775 348.495 116.335 347.315 116.715C346.135 117.095 344.965 117.285 343.805 117.285C342.285 117.285 340.895 116.975 339.635 116.355C338.375 115.715 337.285 114.875 336.365 113.835C335.465 112.775 334.755 111.595 334.235 110.295C333.735 108.975 333.485 107.645 333.485 106.305Z" fill="black"/>
<path d="M314.68 117.255C313.3 117.255 311.99 116.975 310.75 116.415C309.53 115.855 308.45 115.085 307.51 114.105C306.59 113.105 305.87 111.945 305.35 110.625C304.83 109.305 304.57 107.875 304.57 106.335C304.57 104.875 304.83 103.505 305.35 102.225C305.87 100.925 306.6 99.785 307.54 98.805C308.48 97.825 309.58 97.055 310.84 96.495C312.1 95.935 313.47 95.655 314.95 95.655C316.95 95.655 318.66 96.085 320.08 96.945C321.52 97.785 322.6 98.905 323.32 100.305L320.23 102.585C319.69 101.525 318.93 100.715 317.95 100.155C316.99 99.595 315.94 99.315 314.8 99.315C313.9 99.315 313.08 99.505 312.34 99.885C311.6 100.265 310.96 100.785 310.42 101.445C309.88 102.105 309.46 102.865 309.16 103.725C308.88 104.585 308.74 105.495 308.74 106.455C308.74 107.475 308.89 108.415 309.19 109.275C309.51 110.135 309.95 110.885 310.51 111.525C311.09 112.165 311.76 112.675 312.52 113.055C313.28 113.415 314.12 113.595 315.04 113.595C316.12 113.595 317.15 113.315 318.13 112.755C319.13 112.195 320.06 111.375 320.92 110.295V114.375C319.14 116.295 317.06 117.255 314.68 117.255ZM320.62 109.185H316.33V106.155H324.04V117.105H320.62V109.185Z" fill="black"/>
<path d="M287.089 103.425V117.105H282.949V95.805H286.249L297.259 109.845V95.835H301.399V117.105H297.949L287.089 103.425Z" fill="black"/>
<path d="M274.365 117.105V95.805H278.505V117.105H274.365Z" fill="black"/>
<path d="M271.721 99.435H264.911V117.105H260.801V99.435H253.991V95.805H271.721V99.435Z" fill="black"/>
<path d="M243.417 95.805H247.617L255.447 117.105H251.187L249.207 111.795H241.767L239.817 117.105H235.557L243.417 95.805ZM248.457 108.885L245.517 100.095L242.457 108.885H248.457Z" fill="black"/>
<path d="M217.558 117.105V95.835H221.698V105.945L230.638 95.805H235.198L227.038 105.255L235.708 117.105H231.028L224.398 107.925L221.698 110.745V117.105H217.558Z" fill="black"/>
<path d="M211.85 101.385C211.71 101.245 211.45 101.055 211.07 100.815C210.71 100.575 210.26 100.345 209.72 100.125C209.2 99.905 208.63 99.715 208.01 99.555C207.39 99.375 206.76 99.285 206.12 99.285C205 99.285 204.15 99.495 203.57 99.915C203.01 100.335 202.73 100.925 202.73 101.685C202.73 102.265 202.91 102.725 203.27 103.065C203.63 103.405 204.17 103.695 204.89 103.935C205.61 104.175 206.51 104.435 207.59 104.715C208.99 105.055 210.2 105.475 211.22 105.975C212.26 106.455 213.05 107.095 213.59 107.895C214.15 108.675 214.43 109.715 214.43 111.015C214.43 112.155 214.22 113.135 213.8 113.955C213.38 114.755 212.8 115.405 212.06 115.905C211.32 116.405 210.48 116.775 209.54 117.015C208.6 117.235 207.6 117.345 206.54 117.345C205.48 117.345 204.42 117.235 203.36 117.015C202.3 116.795 201.28 116.485 200.3 116.085C199.32 115.665 198.42 115.165 197.6 114.585L199.43 111.015C199.61 111.195 199.93 111.435 200.39 111.735C200.85 112.015 201.41 112.305 202.07 112.605C202.73 112.885 203.45 113.125 204.23 113.325C205.01 113.525 205.8 113.625 206.6 113.625C207.72 113.625 208.57 113.435 209.15 113.055C209.73 112.675 210.02 112.135 210.02 111.435C210.02 110.795 209.79 110.295 209.33 109.935C208.87 109.575 208.23 109.265 207.41 109.005C206.59 108.725 205.62 108.425 204.5 108.105C203.16 107.725 202.04 107.305 201.14 106.845C200.24 106.365 199.57 105.765 199.13 105.045C198.69 104.325 198.47 103.425 198.47 102.345C198.47 100.885 198.81 99.665 199.49 98.685C200.19 97.685 201.13 96.935 202.31 96.435C203.49 95.915 204.8 95.655 206.24 95.655C207.24 95.655 208.18 95.765 209.06 95.985C209.96 96.205 210.8 96.495 211.58 96.855C212.36 97.215 213.06 97.605 213.68 98.025L211.85 101.385Z" fill="black"/>
<path d="M437.837 73.475V77.105H423.047V55.805H437.567V59.435H427.187V64.565H436.157V67.925H427.187V73.475H437.837Z" fill="black"/>
<path d="M403.095 77.105V55.805H412.515C413.495 55.805 414.395 56.005 415.215 56.405C416.055 56.805 416.775 57.345 417.375 58.025C417.995 58.705 418.465 59.465 418.785 60.305C419.125 61.145 419.295 62.005 419.295 62.885C419.295 63.785 419.135 64.655 418.815 65.495C418.515 66.315 418.075 67.035 417.495 67.655C416.915 68.275 416.235 68.755 415.455 69.095L420.315 77.105H415.755L411.375 69.965H407.235V77.105H403.095ZM407.235 66.335H412.425C412.945 66.335 413.405 66.185 413.805 65.885C414.205 65.565 414.525 65.145 414.765 64.625C415.005 64.105 415.125 63.525 415.125 62.885C415.125 62.205 414.985 61.615 414.705 61.115C414.425 60.595 414.065 60.185 413.625 59.885C413.205 59.585 412.745 59.435 412.245 59.435H407.235V66.335Z" fill="black"/>
<path d="M389.626 77.255C387.926 77.255 386.476 76.975 385.276 76.415C384.096 75.835 383.136 75.045 382.396 74.045C381.676 73.045 381.146 71.915 380.806 70.655C380.466 69.375 380.296 68.045 380.296 66.665V55.805H384.436V66.665C384.436 67.545 384.516 68.405 384.676 69.245C384.856 70.065 385.146 70.805 385.546 71.465C385.946 72.125 386.476 72.645 387.136 73.025C387.796 73.405 388.616 73.595 389.596 73.595C390.596 73.595 391.426 73.405 392.086 73.025C392.766 72.625 393.296 72.095 393.676 71.435C394.076 70.775 394.366 70.035 394.546 69.215C394.726 68.375 394.816 67.525 394.816 66.665V55.805H398.926V66.665C398.926 68.125 398.746 69.495 398.386 70.775C398.046 72.055 397.496 73.185 396.736 74.165C395.996 75.125 395.036 75.885 393.856 76.445C392.676 76.985 391.266 77.255 389.626 77.255Z" fill="black"/>
<path d="M367.707 77.255C366.327 77.255 365.017 76.975 363.777 76.415C362.557 75.855 361.477 75.085 360.537 74.105C359.617 73.105 358.897 71.945 358.377 70.625C357.857 69.305 357.597 67.875 357.597 66.335C357.597 64.875 357.857 63.505 358.377 62.225C358.897 60.925 359.627 59.785 360.567 58.805C361.507 57.825 362.607 57.055 363.867 56.495C365.127 55.935 366.497 55.655 367.977 55.655C369.977 55.655 371.687 56.085 373.107 56.945C374.547 57.785 375.627 58.905 376.347 60.305L373.257 62.585C372.717 61.525 371.957 60.715 370.977 60.155C370.017 59.595 368.967 59.315 367.827 59.315C366.927 59.315 366.107 59.505 365.367 59.885C364.627 60.265 363.987 60.785 363.447 61.445C362.907 62.105 362.487 62.865 362.187 63.725C361.907 64.585 361.767 65.495 361.767 66.455C361.767 67.475 361.917 68.415 362.217 69.275C362.537 70.135 362.977 70.885 363.537 71.525C364.117 72.165 364.787 72.675 365.547 73.055C366.307 73.415 367.147 73.595 368.067 73.595C369.147 73.595 370.177 73.315 371.157 72.755C372.157 72.195 373.087 71.375 373.947 70.295V74.375C372.167 76.295 370.087 77.255 367.707 77.255ZM373.647 69.185H369.357V66.155H377.067V77.105H373.647V69.185Z" fill="black"/>
<path d="M350.273 77.105V55.805H354.413V77.105H350.273Z" fill="black"/>
<path d="M333.047 77.105V55.805H347.357V59.435H337.187V64.925H345.647V68.285H337.187V77.105H333.047Z" fill="black"/>
<path d="M307.099 63.425V77.105H302.959V55.805H306.259L317.269 69.845V55.835H321.409V77.105H317.959L307.099 63.425Z" fill="black"/>
<path d="M289.373 77.255C287.813 77.255 286.393 76.955 285.113 76.355C283.853 75.755 282.763 74.945 281.843 73.925C280.943 72.885 280.243 71.725 279.743 70.445C279.243 69.145 278.993 67.815 278.993 66.455C278.993 65.035 279.253 63.685 279.773 62.405C280.313 61.105 281.043 59.955 281.963 58.955C282.903 57.935 284.003 57.135 285.263 56.555C286.543 55.955 287.943 55.655 289.463 55.655C291.003 55.655 292.403 55.965 293.663 56.585C294.943 57.205 296.033 58.035 296.933 59.075C297.833 60.115 298.533 61.275 299.033 62.555C299.533 63.835 299.783 65.155 299.783 66.515C299.783 67.915 299.523 69.265 299.003 70.565C298.483 71.845 297.753 72.995 296.813 74.015C295.893 75.015 294.793 75.805 293.513 76.385C292.253 76.965 290.873 77.255 289.373 77.255ZM283.193 66.455C283.193 67.375 283.333 68.265 283.613 69.125C283.893 69.985 284.293 70.755 284.813 71.435C285.353 72.095 286.003 72.625 286.763 73.025C287.543 73.405 288.423 73.595 289.403 73.595C290.403 73.595 291.293 73.395 292.073 72.995C292.853 72.575 293.503 72.025 294.023 71.345C294.543 70.645 294.933 69.875 295.193 69.035C295.473 68.175 295.613 67.315 295.613 66.455C295.613 65.535 295.463 64.655 295.163 63.815C294.883 62.955 294.473 62.195 293.933 61.535C293.413 60.855 292.763 60.325 291.983 59.945C291.223 59.545 290.363 59.345 289.403 59.345C288.383 59.345 287.483 59.555 286.703 59.975C285.943 60.375 285.303 60.915 284.783 61.595C284.263 62.275 283.863 63.035 283.583 63.875C283.323 64.715 283.193 65.575 283.193 66.455Z" fill="black"/>
<path d="M261.542 63.425V77.105H257.402V55.805H260.702L271.712 69.845V55.835H275.852V77.105H272.402L261.542 63.425Z" fill="black"/>
<path d="M237.451 77.105V55.805H246.871C247.851 55.805 248.751 56.005 249.571 56.405C250.411 56.805 251.131 57.345 251.731 58.025C252.351 58.705 252.821 59.465 253.141 60.305C253.481 61.145 253.651 62.005 253.651 62.885C253.651 63.785 253.491 64.655 253.171 65.495C252.871 66.315 252.431 67.035 251.851 67.655C251.271 68.275 250.591 68.755 249.811 69.095L254.671 77.105H250.111L245.731 69.965H241.591V77.105H237.451ZM241.591 66.335H246.781C247.301 66.335 247.761 66.185 248.161 65.885C248.561 65.565 248.881 65.145 249.121 64.625C249.361 64.105 249.481 63.525 249.481 62.885C249.481 62.205 249.341 61.615 249.061 61.115C248.781 60.595 248.421 60.185 247.981 59.885C247.561 59.585 247.101 59.435 246.601 59.435H241.591V66.335Z" fill="black"/>
<path d="M234.223 73.475V77.105H219.433V55.805H233.953V59.435H223.573V64.565H232.543V67.925H223.573V73.475H234.223Z" fill="black"/>
<path d="M201.35 55.805L207.11 72.185L212.81 55.805H217.16L209.09 77.105H205.1L197 55.805H201.35Z" fill="black"/>
<defs>
<clipPath id="clip0_55_630">
<rect width="162" height="121" fill="white" transform="translate(8 26)"/>
</clipPath>
</defs>
</svg>
