<svg width="260" height="96" viewBox="0 0 260 96" fill="none" xmlns="http://www.w3.org/2000/svg">
<path d="M27.8 60.6336C42.3554 60.6336 62.4791 68.8024 77.0997 68.8024C87.5197 68.8024 97.7118 66.0471 103.475 61.9626C103.866 59.5639 104.094 57.1003 104.094 54.6042C104.094 30.2599 84.2634 10.5186 59.809 10.5186C35.3545 10.5186 15.5239 30.2599 15.5239 54.6042C15.5239 57.1003 15.7193 59.5315 16.1426 61.8978C17.7056 61.5737 23.1436 60.6336 27.8 60.6336Z" fill="white"/>
<path d="M229.851 69.2886H127.376V70.5204H229.851V69.2886Z" fill="#E3A82B"/>
<path d="M130.014 25.0733C130.014 22.9987 129.851 22.4477 128.451 22.3504L127.474 22.2856C127.311 22.1559 127.343 21.6048 127.506 21.5724C129.2 21.4104 131.316 21.3455 134.214 21.3455C136.168 21.3455 138.057 21.4752 139.457 22.1235C140.792 22.707 141.834 23.8415 141.834 25.6244C141.834 27.6342 140.531 28.6715 138.643 29.4495C138.643 29.7412 138.903 29.8061 139.229 29.8709C140.922 30.1626 143.397 31.5565 143.397 34.5388C143.397 37.7804 140.727 39.9522 135.093 39.9522C134.182 39.9522 132.651 39.855 131.349 39.855C129.981 39.855 128.906 39.9198 127.767 39.9522C127.571 39.855 127.506 39.4336 127.702 39.2391L128.255 39.1418C129.916 38.8825 129.981 38.5908 129.981 35.6409V25.0733H130.014ZM132.553 28.8012C132.553 29.5792 132.586 29.644 134.182 29.5792C137.373 29.4819 139.066 28.6391 139.066 26.0134C139.066 23.2581 136.787 22.2208 134.41 22.2208C133.726 22.2208 133.27 22.2856 132.977 22.3828C132.651 22.4801 132.553 22.6097 132.553 23.096V28.8012ZM132.553 35.2844C132.553 36.2893 132.619 37.7155 133.205 38.3315C133.791 38.9798 134.735 39.1094 135.679 39.1094C138.447 39.1094 140.564 37.9749 140.564 35.1871C140.564 32.9828 139.326 30.3896 134.344 30.3896C132.651 30.3896 132.521 30.5516 132.521 31.1027V35.2844H132.553Z" fill="#234075"/>
<path d="M165.116 27.8287C165.116 25.3003 165.051 24.8789 163.488 24.7816L162.837 24.7492C162.674 24.6519 162.739 24.2305 162.902 24.1657C164.237 24.1981 165.149 24.2305 166.256 24.2305C167.33 24.2305 168.242 24.1981 169.545 24.1657C169.707 24.2305 169.773 24.6519 169.61 24.7492L168.958 24.7816C167.395 24.9113 167.33 25.3003 167.33 27.8287V36.3217C167.33 38.8501 167.395 39.1743 168.958 39.3688L169.61 39.4336C169.773 39.5308 169.707 39.9523 169.545 40.0171C168.21 39.9847 167.298 39.9523 166.256 39.9523C165.149 39.9523 164.237 39.9847 162.902 40.0171C162.739 39.9523 162.674 39.5633 162.837 39.4336L163.488 39.3688C165.051 39.2067 165.116 38.8825 165.116 36.3217V27.8287Z" fill="#234075"/>
<path d="M179.9 36.3865C179.9 38.8825 179.965 39.2391 181.397 39.3687L182.211 39.4336C182.374 39.5308 182.309 39.9522 182.146 40.0171C180.714 39.9846 179.867 39.9522 178.89 39.9522C177.881 39.9522 177.001 39.9846 175.406 40.0171C175.243 39.9522 175.211 39.5308 175.406 39.4336L176.318 39.3687C177.75 39.2391 177.881 38.8825 177.881 36.3865V25.6892C177.881 24.9437 177.881 24.9113 177.132 24.9113H175.764C174.69 24.9113 173.322 24.9437 172.703 25.4947C172.117 26.0134 171.857 26.532 171.596 27.1479C171.401 27.2776 171.043 27.1804 170.945 26.9859C171.336 25.9161 171.726 24.3926 171.889 23.4201C171.954 23.3877 172.28 23.3553 172.378 23.4201C172.54 24.1981 173.354 24.1657 174.494 24.1657H184.621C185.956 24.1657 186.184 24.1333 186.575 23.485C186.705 23.4525 186.966 23.4525 187.031 23.5498C186.77 24.5223 186.575 26.4672 186.64 27.1804C186.542 27.3749 186.119 27.3749 185.989 27.2128C185.924 26.6293 185.728 25.7217 185.37 25.4623C184.784 25.0409 183.84 24.8788 182.472 24.8788H180.714C179.965 24.8788 179.997 24.9113 179.997 25.6892V36.3865H179.9Z" fill="#234075"/>
<path d="M190.58 27.8287C190.58 25.3003 190.515 24.8789 188.952 24.7816L188.301 24.7492C188.138 24.6519 188.203 24.2305 188.366 24.1657C189.701 24.1981 190.613 24.2305 191.72 24.2305C192.794 24.2305 193.706 24.1981 195.008 24.1657C195.171 24.2305 195.236 24.6519 195.074 24.7492L194.422 24.7816C192.859 24.9113 192.794 25.3003 192.794 27.8287V36.3217C192.794 38.8501 192.859 39.1743 194.422 39.3688L195.074 39.4336C195.236 39.5308 195.171 39.9523 195.008 40.0171C193.673 39.9847 192.762 39.9523 191.72 39.9523C190.613 39.9523 189.701 39.9847 188.366 40.0171C188.203 39.9523 188.138 39.5633 188.301 39.4336L188.952 39.3688C190.515 39.2067 190.58 38.8825 190.58 36.3217V27.8287Z" fill="#234075"/>
<path d="M202.53 40.3088C200.153 40.3088 198.656 39.6929 198.102 39.4336C197.776 38.915 197.386 37.1969 197.353 36.0948C197.483 35.9327 197.907 35.8679 198.037 36.0299C198.46 37.2617 199.632 39.5957 202.921 39.5957C205.298 39.5957 206.471 38.2666 206.471 36.8403C206.471 35.803 206.21 34.6036 204.159 33.5015L201.456 32.0104C200.056 31.2324 198.395 29.8709 198.395 27.8936C198.395 25.6244 200.479 23.7767 204.159 23.7767C205.038 23.7767 206.047 23.9064 206.796 24.1009C207.154 24.1981 207.545 24.2306 207.773 24.2306C208.034 24.814 208.294 26.1431 208.294 27.148C208.196 27.2777 207.74 27.3749 207.578 27.2128C207.219 26.0783 206.438 24.5223 203.735 24.5223C200.967 24.5223 200.349 26.0783 200.349 27.1804C200.349 28.5743 201.716 29.5792 202.758 30.1303L205.038 31.3296C206.829 32.2697 208.587 33.6636 208.587 35.9327C208.555 38.4936 206.21 40.3088 202.53 40.3088Z" fill="#234075"/>
<path d="M216.793 32.2697C215.556 32.2697 215.49 32.3021 215.49 33.0477V36.4189C215.49 38.9149 215.621 39.2715 217.053 39.4012L217.802 39.466C217.965 39.5633 217.9 39.9847 217.737 40.0495C216.337 40.0171 215.458 39.9847 214.448 39.9847C213.341 39.9847 212.462 40.0171 211.453 40.0495C211.29 39.9847 211.257 39.5957 211.388 39.466L211.811 39.4012C213.244 39.1743 213.309 38.9149 213.309 36.4189V27.7963C213.309 25.3003 213.113 24.8789 211.778 24.7816L211.095 24.7492C210.932 24.6519 210.997 24.2305 211.16 24.1657C212.43 24.1981 213.309 24.2305 214.416 24.2305C215.425 24.2305 216.305 24.1981 217.412 24.1657C217.575 24.2305 217.607 24.6519 217.477 24.7492L216.988 24.7816C215.49 24.9113 215.425 25.2679 215.425 27.7963V30.5516C215.425 31.2972 215.49 31.3296 216.728 31.3296H224.12C225.357 31.3296 225.422 31.2972 225.422 30.5516V27.7963C225.422 25.3003 225.357 24.9437 223.859 24.7816L223.371 24.7492C223.208 24.6519 223.273 24.2305 223.436 24.1657C224.641 24.1981 225.487 24.2305 226.562 24.2305C227.571 24.2305 228.45 24.1981 229.623 24.1657C229.785 24.2305 229.818 24.6519 229.688 24.7492L229.134 24.7816C227.636 24.9113 227.571 25.2679 227.571 27.7963V36.3865C227.571 38.8825 227.636 39.2067 229.134 39.3688L229.753 39.4336C229.916 39.5308 229.851 39.9523 229.688 40.0171C228.45 39.9847 227.571 39.9523 226.562 39.9523C225.487 39.9523 224.575 39.9847 223.436 40.0171C223.273 39.9523 223.24 39.5633 223.371 39.4336L223.859 39.3688C225.422 39.1419 225.422 38.8825 225.422 36.3865V33.0153C225.422 32.3021 225.357 32.2373 224.12 32.2373H216.793V32.2697Z" fill="#234075"/>
<path d="M115.23 45.3009C117.347 43.6477 120.05 42.8373 123.078 42.8373C124.641 42.8373 126.855 43.1614 128.223 43.518C128.581 43.6153 128.776 43.6477 129.037 43.6477C129.069 44.296 129.2 46.1437 129.428 47.8942C129.297 48.0887 128.841 48.1211 128.646 47.959C128.223 45.9816 126.888 43.7449 122.687 43.7449C118.226 43.7449 114.449 46.5327 114.449 52.5296C114.449 58.5914 118.324 61.9302 123.078 61.9302C126.823 61.9302 128.483 59.4991 129.167 57.8134C129.362 57.6838 129.818 57.7162 129.916 57.9431C129.721 59.4342 128.972 61.3468 128.516 61.8978C128.158 61.9627 127.832 62.0599 127.506 62.1896C126.855 62.4165 124.771 62.8379 122.915 62.8379C120.31 62.8379 117.803 62.3192 115.686 60.8929C113.374 59.3046 111.551 56.6789 111.551 52.951C111.551 49.7419 113.016 47.0189 115.23 45.3009Z" fill="#234075"/>
<path d="M131.121 54.6366C131.121 49.8715 134.898 46.2085 140.108 46.2085C145.937 46.2085 148.867 50.1957 148.867 54.4097C148.867 59.2397 144.992 62.7406 140.108 62.7406C134.507 62.7406 131.121 58.9479 131.121 54.6366ZM146.328 55.1553C146.328 51.2005 144.471 46.9541 139.685 46.9541C137.047 46.9541 133.661 48.6397 133.661 53.8911C133.661 57.4244 135.484 62.0275 140.434 62.0275C143.462 61.995 146.328 59.8556 146.328 55.1553Z" fill="#234075"/>
<path d="M177.294 52.5944C177.294 51.1033 177.229 48.348 176.806 47.6348C176.643 47.3431 176.155 47.181 175.536 47.1486L174.885 47.1161C174.722 46.9541 174.787 46.6299 174.95 46.5327C175.927 46.5651 176.871 46.5975 177.848 46.5975C178.923 46.5975 179.606 46.5651 180.518 46.5327C180.714 46.6623 180.681 46.9541 180.583 47.1161L179.965 47.1486C179.313 47.181 178.857 47.4079 178.695 47.732C178.336 48.51 178.336 51.2654 178.336 52.5944V55.285C178.336 57.3596 177.978 59.5639 176.546 60.9902C175.438 62.1247 173.582 62.7406 171.694 62.7406C169.935 62.7406 168.177 62.4165 166.94 61.4116C165.605 60.3743 164.953 58.6238 164.953 55.7712V50.1308C164.953 47.6348 164.888 47.2458 163.423 47.1161L162.772 47.0837C162.609 46.9865 162.674 46.5975 162.837 46.5002C164.107 46.5327 164.986 46.5651 165.995 46.5651C167.037 46.5651 167.884 46.5327 169.121 46.5002C169.284 46.5651 169.317 46.9865 169.186 47.0837L168.568 47.1161C167.102 47.2458 167.037 47.6348 167.037 50.1308V55.285C167.037 59.1424 168.307 61.6709 172.215 61.6709C175.894 61.6709 177.294 58.9479 177.294 55.3174V52.5944Z" fill="#234075"/>
<path d="M206.861 49.6122C206.861 47.8293 206.764 47.3755 205.494 47.2782L204.582 47.181C204.484 47.0838 204.419 46.5975 204.615 46.5975C206.145 46.5003 208.034 46.403 210.671 46.403C212.43 46.403 214.123 46.5327 215.393 47.0838C216.598 47.6024 217.542 48.5425 217.542 50.0984C217.542 51.8489 216.37 52.7241 214.676 53.4049C214.676 53.6318 214.904 53.729 215.197 53.7614C216.728 53.9883 218.975 55.2201 218.975 57.781C218.975 60.5688 216.565 62.4489 211.485 62.4489C210.671 62.4489 209.304 62.3841 208.099 62.3841C206.861 62.3841 205.917 62.4165 204.875 62.4489C204.712 62.3841 204.647 61.9951 204.81 61.833L205.331 61.7682C206.829 61.5412 206.894 61.2819 206.894 58.7535V49.6122H206.861ZM209.173 52.8214C209.173 53.5021 209.206 53.5345 210.639 53.5021C213.504 53.4049 215.067 52.6917 215.067 50.4226C215.067 48.0562 213.016 47.1486 210.867 47.1486C210.248 47.1486 209.825 47.181 209.564 47.2782C209.271 47.3431 209.173 47.4727 209.173 47.8941V52.8214ZM209.173 58.3969C209.173 59.2721 209.238 60.5039 209.759 61.0226C210.28 61.5737 211.127 61.7033 211.974 61.7033C214.481 61.7033 216.402 60.7308 216.402 58.3321C216.402 56.4195 215.262 54.2152 210.801 54.2152C209.271 54.2152 209.173 54.3449 209.173 54.8311V58.3969Z" fill="#234075"/>
<path d="M161.013 39.466L160.362 39.4012C160.232 39.4012 160.102 39.3687 160.004 39.3363C159.027 39.1743 158.636 38.299 158.18 37.4886L155.868 33.5015C155.478 32.8207 155.054 31.9455 154.143 31.8158C156.52 31.5241 158.636 30.1626 158.636 27.8611C158.636 25.1706 155.966 23.9712 153.263 23.9712C151.635 23.9712 150.17 24.0036 148.509 24.0036C147.598 24.0036 146.523 23.9712 145.611 23.9712C145.09 23.9712 145.09 24.0684 145.09 24.3602C145.09 24.7816 145.253 24.6519 145.807 24.6843C147.728 24.7816 147.663 25.1382 147.663 26.7914V37.2617C147.663 38.7528 147.793 39.2067 146.197 39.3363C146.197 39.3363 145.969 39.3687 145.807 39.3687L145.155 39.466C144.993 39.5957 145.058 39.9847 145.22 40.0495C145.579 40.0495 146.197 40.0171 146.197 40.0171C147.077 39.9846 147.956 39.9198 148.835 39.9198C149.714 39.9198 150.561 39.9846 151.407 40.0171C151.7 40.0171 152.026 40.0495 152.384 40.0495C152.547 39.9847 152.612 39.5957 152.449 39.466L151.766 39.4012C151.635 39.4012 151.407 39.3687 151.407 39.3687C149.812 39.2715 149.909 38.8177 149.909 37.2617V33.307C149.909 33.0801 149.877 32.4642 150.04 32.2697C150.17 32.1076 150.43 32.14 150.658 32.14C152.808 32.14 152.808 32.3345 153.817 34.1498L156.617 39.1418C156.845 39.5308 157.008 40.0171 157.594 40.0171H160.004C160.297 40.0171 160.623 40.0495 160.981 40.0495C161.144 39.9847 161.176 39.5957 161.013 39.466ZM151.31 31.5889C150.821 31.5889 149.844 31.7834 149.844 31.1351V26.5645C149.844 24.7816 149.909 24.5223 152.059 24.5223C154.598 24.5223 156.161 25.7865 156.161 28.1528C156.161 29.1902 155.803 30.1302 154.859 30.7785C153.784 31.4917 152.612 31.5889 151.31 31.5889Z" fill="#234075"/>
<path d="M151.831 50.2281C151.831 47.7321 151.766 47.3431 150.105 47.2134L149.454 47.181C149.291 47.0838 149.356 46.6624 149.519 46.5975C150.984 46.63 151.896 46.6624 152.938 46.6624C153.98 46.6624 154.859 46.63 156.194 46.5975C156.357 46.6624 156.39 47.0838 156.259 47.181L155.641 47.2134C154.078 47.3431 154.045 47.6997 154.045 50.2281V58.559C154.045 60.0501 154.11 60.6984 154.599 61.1523C154.892 61.4116 155.38 61.7033 157.464 61.7033C159.711 61.7033 160.264 61.6061 160.688 61.3792C161.209 61.0874 161.893 60.2446 162.446 59.0128C162.609 58.8832 163.097 58.9804 163.097 59.1425C163.097 59.4018 162.348 61.833 161.99 62.4813C160.655 62.4489 158.148 62.4165 155.413 62.4165H152.97C151.863 62.4165 151.017 62.4489 149.551 62.4813C149.389 62.4165 149.356 62.0275 149.486 61.8978L150.268 61.833C151.798 61.7033 151.863 61.3468 151.863 58.8507V50.2281H151.831Z" fill="#234075"/>
<path d="M222.589 50.2605C222.589 47.7321 222.524 47.3107 220.994 47.2134L220.342 47.181C220.18 47.0838 220.245 46.6624 220.407 46.5975C221.71 46.63 222.589 46.6624 223.664 46.6624C224.706 46.6624 225.585 46.63 226.887 46.5975C227.05 46.6624 227.083 47.0838 226.953 47.181L226.301 47.2134C224.771 47.3431 224.706 47.7321 224.706 50.2605V58.7535C224.706 61.2819 224.771 61.6061 226.301 61.8006L226.953 61.8654C227.115 61.9627 227.05 62.3841 226.887 62.4489C225.585 62.4165 224.706 62.3841 223.664 62.3841C222.589 62.3841 221.677 62.4165 220.407 62.4489C220.245 62.3841 220.212 61.9951 220.342 61.8654L220.994 61.8006C222.524 61.6385 222.589 61.3144 222.589 58.7535V50.2605Z" fill="#234075"/>
<path d="M201.879 61.8006C201.749 61.8006 201.489 61.7682 201.489 61.7682C201.228 61.7358 200.968 61.7034 200.772 61.4765C200.447 61.1199 200.479 60.115 200.479 59.6936V49.2232C200.479 48.7694 200.381 47.7645 200.707 47.408C200.87 47.2135 201.228 47.181 201.521 47.181C201.717 47.181 201.717 47.181 201.879 47.1486L202.531 47.1162C202.693 47.019 202.628 46.5976 202.465 46.5327C202.107 46.5327 201.782 46.5327 201.489 46.5651H198.656C198.363 46.5651 198.07 46.5651 197.907 46.8893L192.143 58.8508L187.031 47.2783C186.868 46.8569 186.835 46.5327 186.314 46.5327H183.351C183.058 46.5327 182.7 46.5327 182.342 46.5003C182.179 46.5651 182.114 46.9865 182.277 47.0838L182.928 47.1162C183.058 47.1162 183.319 47.1486 183.319 47.1486C184.426 47.2135 184.491 47.4728 184.393 48.6398L183.514 59.8881C183.449 61.0226 183.384 61.6061 182.179 61.7358C182.179 61.7358 181.919 61.7682 181.788 61.7682L181.137 61.833C180.974 61.9627 181.039 62.3517 181.202 62.4165C181.56 62.4165 182.179 62.3841 182.179 62.3841C182.765 62.3517 183.384 62.2868 184.003 62.2868C184.654 62.2868 185.338 62.3517 185.989 62.3841C186.282 62.3841 186.608 62.4165 186.966 62.4165C187.129 62.3517 187.194 61.9627 187.031 61.833L186.38 61.7682C186.217 61.7682 186.021 61.7358 186.021 61.7358C184.296 61.6061 184.361 60.4067 184.458 58.948L185.272 48.5101H185.468L191.003 61.3792C191.069 61.5413 191.134 61.8654 191.427 61.8654C191.687 61.8654 191.752 61.5737 191.85 61.4116L198.07 48.2183H198.265V59.6936C198.265 60.1474 198.33 61.0875 197.842 61.444C197.581 61.6385 196.8 61.7358 196.8 61.7358C196.702 61.7682 196.572 61.7682 196.441 61.7682L195.79 61.833C195.627 61.9627 195.692 62.3517 195.855 62.4165C196.213 62.4165 196.832 62.3841 196.832 62.3841C197.744 62.3517 198.656 62.2868 199.567 62.2868C200.219 62.2868 201.521 62.3517 201.521 62.3517C201.814 62.3517 202.172 62.3841 202.531 62.4165C202.693 62.3517 202.759 61.9627 202.596 61.833L201.879 61.8006Z" fill="#234075"/>
<path d="M245.155 61.8654L245.057 61.8006C244.927 61.8006 244.797 61.7682 244.699 61.7682C243.657 61.5413 243.266 60.277 242.876 59.4018L237.535 46.8244C237.47 46.6624 237.373 46.3382 237.177 46.3382C236.884 46.3382 236.819 46.6948 236.721 46.8893L231.609 59.4666C231.414 59.9529 230.958 61.0874 230.6 61.444C230.339 61.7033 229.981 61.7682 229.623 61.8006C229.623 61.8006 229.33 61.833 229.199 61.833L228.581 61.8978C228.418 62.0275 228.483 62.4165 228.646 62.4813C229.004 62.4813 229.623 62.4489 229.623 62.4489C230.306 62.4489 231.023 62.3517 231.707 62.3517C232.293 62.3517 232.879 62.4165 233.465 62.4489C233.465 62.4489 234.084 62.4813 234.442 62.4813C234.605 62.4165 234.67 62.0275 234.507 61.8978L233.856 61.833C233.726 61.833 233.498 61.8006 233.498 61.8006C232.879 61.7357 232.13 61.6385 232.13 60.9578C232.13 60.5039 232.358 59.9853 232.488 59.5639L233.27 57.6838C233.66 56.7761 233.498 56.6789 234.572 56.6789H238.154C239.424 56.6789 239.229 56.6789 239.782 57.9431L240.629 59.8556C240.759 60.1798 240.987 60.7309 240.987 61.0874C240.987 61.7033 240.303 61.7682 239.652 61.8006C239.652 61.8006 239.424 61.833 239.261 61.833L238.61 61.8654C238.447 61.9951 238.512 62.3841 238.675 62.4489C239.033 62.4489 239.652 62.4165 239.652 62.4165C240.401 62.3841 241.15 62.3192 241.899 62.3192C242.81 62.3192 243.755 62.3841 244.667 62.4165C244.96 62.4165 244.699 62.4489 245.057 62.4489C245.285 62.4165 245.318 62.0275 245.155 61.8654ZM238.154 55.9657H235.028C234.93 55.9657 234.051 56.063 234.051 55.8036C234.051 55.7388 234.116 55.5767 234.116 55.5119L235.972 50.9088C236.037 50.7792 236.2 50.1633 236.428 50.1633C236.591 50.1633 236.819 50.8116 236.852 50.9088L238.708 55.2202C238.708 55.285 238.903 55.674 238.903 55.7712C238.968 56.0306 238.317 55.9657 238.154 55.9657Z" fill="#234075"/>
<path d="M88.4639 44.3933L90.2222 45.1064L94.0972 42.4159L88.4639 44.3933Z" fill="#E3A82B"/>
<path d="M23.2084 41.3786L18.6171 39.7578L18.845 39.2067L24.0225 40.9248H24.055L24.7388 40.5358L24.9993 40.3737L19.3335 37.9749L19.5614 37.3914L32.1957 42.4807L32.619 42.3187L20.115 36.2569L20.408 35.6734L33.661 41.8324L33.8564 41.7352L20.9942 34.474L21.2547 33.9229L39.8153 43.9719C39.9781 43.6801 40.2712 43.1939 40.434 42.9021C33.3679 36.2893 26.5623 31.3297 26.5623 31.3297C26.5623 31.3297 33.5633 35.9976 42.2249 40.3413C42.518 39.9847 42.7459 39.693 43.039 39.3688L27.181 25.4948L27.6043 25.0734L40.4014 35.9327L28.5487 24.1333L29.0045 23.6795L42.29 36.4838L29.9163 22.8043L30.4047 22.3829L41.8342 34.5713L31.3816 21.4752L31.8375 21.0538L45.2207 37.2618C45.5789 36.97 45.8394 36.7431 46.2301 36.4514C42.1924 27.7315 37.7639 20.6324 37.7639 20.6324C37.7639 20.6324 42.4854 27.537 48.8351 34.7657C49.2259 34.5388 49.6166 34.3443 50.0074 34.1498L49.9422 34.1174L40.5642 15.4783L41.1178 15.219L48.9002 30.033L42.3552 14.6679L42.9413 14.4086L50.4632 31.2324L44.1461 13.9223L44.7322 13.6954L50.7563 29.2875L45.9696 13.2092L46.5557 13.0147L52.8077 32.918V32.9829C53.2311 32.8532 53.6544 32.7235 54.0777 32.5939C53.5892 23.0312 52.1891 14.8624 52.1891 14.8624C52.1891 14.8624 53.9474 22.9664 57.106 32.0104C57.5293 31.9456 57.9852 31.9132 58.4411 31.8807V31.8483H58.5062L58.4736 31.8159L56.7804 11.0373L57.3991 11.0049L59.0272 27.6667L58.669 10.9401L59.3202 10.9076L59.9715 29.3199L60.6228 10.9076L61.274 10.9401L60.9809 27.6342L62.6091 10.9725L63.2278 11.0049L61.5345 31.7835L61.5019 31.8159H61.5345C61.9578 31.8483 62.4137 31.8807 62.837 31.9456C65.9956 22.9339 67.7539 14.83 67.7539 14.83C67.7539 14.83 66.3538 22.9664 65.8653 32.5291C66.2886 32.6263 66.7119 32.756 67.1353 32.918L73.3873 13.0795L73.9734 13.274L69.2193 29.3199L75.1456 13.7278L75.7318 13.9547L69.4146 31.2648L76.9366 14.441L77.5227 14.7003L70.9776 30.0654L78.7601 15.2514L79.3136 15.5107L69.9682 34.085C70.359 34.2795 70.7171 34.474 71.1079 34.6685C77.425 27.4722 82.114 20.6 82.114 20.6C82.114 20.6 77.7181 27.6343 73.6803 36.3217C74.0385 36.581 74.3967 36.8728 74.7223 37.1645L87.9427 21.1187L88.3986 21.5401L77.946 34.6361L89.3755 22.4477L89.8639 22.8691L77.4901 36.5486L90.7757 23.7443L91.2315 24.1982L79.3788 35.9976L92.1758 25.1382L92.5992 25.5596L76.9366 39.2716C77.1971 39.5633 77.4576 39.8875 77.7181 40.2116C86.3146 35.9003 93.2504 31.2648 93.2504 31.2648C93.2504 31.2648 86.51 36.192 79.4765 42.7401C79.6718 43.0642 79.9649 43.6153 80.1603 43.9394L98.4604 34.0202L98.7209 34.5713L84.1003 42.8373L99.307 35.8031L99.6001 36.3865L85.4354 43.2587L85.6959 43.356L100.089 37.5535L100.316 38.137L86.9333 43.8098L87.1938 43.907L96.1159 40.9572L97.451 40.0171L97.9068 40.3413L100.837 39.3688L101.065 39.9199L98.5255 40.7951L102.205 43.5829L103.377 44.2312C98.6558 24.5872 80.9092 10 59.7436 10C38.1872 10 20.2127 25.1058 15.8818 45.2685C15.947 45.2361 15.9795 45.2037 16.0446 45.2037L16.5982 44.9768L16.9238 44.8147L23.2084 41.3786Z" fill="#E3A82B"/>
<path d="M15.7191 62.8055C15.7191 62.8055 22.3293 61.4764 27.8649 61.4764C42.4204 61.4764 62.544 69.6452 77.1646 69.6452C87.8777 69.6452 98.3302 66.7278 104.029 62.4489C104.485 59.9205 104.712 57.3272 104.712 54.6691C104.712 51.0709 104.289 47.6024 103.475 44.2312L97.3859 40.8599L90.2547 45.852L85.4355 44.0043C83.8073 44.8147 73.7781 51.4923 73.7781 51.4923L69.9357 48.7046L65.8003 47.8942L60.2972 43.907L53.9801 48.2183C53.9801 48.2183 46.914 52.3027 46.6861 52.3027C46.4581 52.3027 38.1872 45.7871 38.1872 45.7871L34.3774 41.8C33.7262 42.2214 31.1212 43.3884 31.1212 43.3884L30.9909 43.4208L28.4836 42.6428L25.4227 41.022L16.175 45.2037C16.1099 45.2361 16.0773 45.2685 16.0122 45.2685C15.3609 48.2832 15.0027 51.4275 15.0027 54.6691C14.9702 57.4569 15.2307 60.1798 15.7191 62.8055Z" fill="#234075"/>
<path d="M115.171 77.7168C115.171 77.2954 115.171 77.263 114.747 77.263H113.836C113.217 77.263 112.468 77.2954 112.11 77.6196C111.784 77.9113 111.621 78.2355 111.491 78.592C111.393 78.6893 111.198 78.592 111.133 78.4948C111.361 77.8789 111.556 76.9712 111.654 76.4202C111.686 76.3878 111.882 76.3878 111.914 76.4202C112.012 76.874 112.468 76.8416 113.119 76.8416H118.948C119.729 76.8416 119.957 76.7443 119.99 76.6471V76.4526L120.934 76.0636C120.999 76.0636 121.032 76.096 121.064 76.1609C121.064 76.5823 121.032 77.2954 121.032 77.8789V80.8287C121.032 80.9584 121.032 81.0556 121.097 81.0881C121.618 80.6991 122.269 80.3749 122.986 80.3749C124.321 80.3749 124.809 81.1853 124.809 82.1902V84.5242C124.809 85.529 124.842 85.6911 125.33 85.756L125.721 85.7884C125.819 85.8532 125.786 86.0801 125.688 86.1449C125.167 86.1125 124.777 86.1125 124.288 86.1125C123.767 86.1125 123.376 86.1125 122.986 86.1449C122.888 86.1125 122.855 85.8532 122.953 85.7884L123.246 85.756C123.767 85.6587 123.767 85.5615 123.767 84.5242V82.5144C123.767 81.6067 123.344 81.0232 122.432 81.0232C121.944 81.0232 121.585 81.1853 121.325 81.4122C121.064 81.6067 121.032 81.704 121.032 82.1902V84.5242C121.032 85.529 121.064 85.6587 121.553 85.756L121.846 85.7884C121.944 85.8532 121.911 86.0801 121.813 86.1449C121.39 86.1125 120.999 86.1125 120.478 86.1125C119.957 86.1125 119.567 86.1125 119.111 86.1449C119.013 86.1125 118.98 85.8532 119.078 85.7884L119.436 85.756C119.957 85.6911 119.957 85.5615 119.957 84.5242V78.2679C119.957 77.3927 119.632 77.2954 118.004 77.2954H116.734C116.31 77.2954 116.31 77.2954 116.31 77.7816V84.0055C116.31 85.4642 116.343 85.6911 117.157 85.756L117.613 85.7884C117.71 85.8532 117.678 86.0801 117.58 86.1449C116.766 86.1125 116.31 86.1125 115.724 86.1125C115.138 86.1125 114.682 86.1125 113.77 86.1449C113.673 86.1125 113.673 85.8532 113.77 85.7884L114.291 85.756C115.105 85.6911 115.171 85.4642 115.171 84.0055V77.7168Z" fill="#234075"/>
<path d="M127.805 82.482C127.447 82.482 127.414 82.5144 127.414 82.871C127.414 84.2973 128.228 85.4966 129.759 85.4966C130.214 85.4966 130.605 85.367 131.061 84.8159C131.191 84.7835 131.289 84.8483 131.322 84.978C130.866 85.9181 129.856 86.2746 129.107 86.2746C128.196 86.2746 127.479 85.8856 127.056 85.367C126.633 84.8159 126.47 84.1676 126.47 83.5517C126.47 81.8337 127.609 80.4073 129.303 80.4073C130.507 80.4073 131.289 81.2177 131.289 82.0606C131.289 82.2551 131.256 82.3523 131.224 82.4171C131.191 82.5144 130.996 82.5144 130.41 82.5144H127.805V82.482ZM128.651 82.0606C129.693 82.0606 129.986 81.9957 130.117 81.9309C130.149 81.8985 130.214 81.8337 130.214 81.6716C130.214 81.2826 129.954 80.7963 129.14 80.7963C128.326 80.7963 127.609 81.5419 127.577 82.0281C127.577 82.0606 127.577 82.093 127.675 82.093H128.651V82.0606Z" fill="#234075"/>
<path d="M136.825 78.6569C136.825 77.6196 136.76 77.3603 136.141 77.2954L135.685 77.263C135.587 77.1658 135.587 76.9713 135.685 76.9064C136.434 76.8416 137.411 76.8092 138.713 76.8092C139.593 76.8092 140.439 76.874 141.058 77.1982C141.677 77.4899 142.132 78.041 142.132 78.9486C142.132 79.9535 141.546 80.4722 140.7 80.8612C140.7 80.9909 140.797 81.0557 140.96 81.0557C141.709 81.1853 142.849 81.8985 142.849 83.3896C142.849 85.0104 141.644 86.1126 139.104 86.1126C138.681 86.1126 137.997 86.0801 137.411 86.0801C136.792 86.0801 136.304 86.1126 135.783 86.1126C135.685 86.0801 135.685 85.8532 135.75 85.756L136.011 85.7236C136.76 85.5939 136.792 85.4318 136.792 83.9731V78.6569H136.825ZM137.997 80.537C137.997 80.926 137.997 80.9584 138.713 80.926C140.146 80.8612 140.928 80.4398 140.928 79.1431C140.928 77.7817 139.918 77.263 138.844 77.263C138.551 77.263 138.323 77.2954 138.192 77.3603C138.062 77.3927 137.997 77.4575 137.997 77.7168V80.537ZM137.997 83.7786C137.997 84.2973 138.03 85.0104 138.29 85.3022C138.551 85.6263 138.974 85.6912 139.397 85.6912C140.635 85.6912 141.611 85.1401 141.611 83.7462C141.611 82.6441 141.058 81.3474 138.811 81.3474C138.062 81.3474 137.997 81.4447 137.997 81.704V83.7786Z" fill="#234075"/>
<path d="M145.291 82.482C144.933 82.482 144.9 82.5144 144.9 82.871C144.9 84.2973 145.714 85.4966 147.245 85.4966C147.701 85.4966 148.091 85.367 148.547 84.8159C148.677 84.7835 148.775 84.8483 148.808 84.978C148.352 85.9181 147.342 86.2746 146.593 86.2746C145.682 86.2746 144.965 85.8856 144.542 85.367C144.119 84.8159 143.956 84.1676 143.956 83.5517C143.956 81.8337 145.095 80.4073 146.789 80.4073C147.994 80.4073 148.775 81.2177 148.775 82.0606C148.775 82.2551 148.743 82.3523 148.71 82.4171C148.677 82.5144 148.482 82.5144 147.896 82.5144H145.291V82.482ZM146.137 82.0606C147.179 82.0606 147.473 81.9957 147.603 81.9309C147.635 81.8985 147.701 81.8337 147.701 81.6716C147.701 81.2826 147.44 80.7963 146.626 80.7963C145.812 80.7963 145.095 81.5419 145.063 82.0281C145.063 82.0606 145.063 82.093 145.161 82.093H146.137V82.0606Z" fill="#234075"/>
<path d="M152.878 80.6343C153.008 80.926 153.106 81.3798 153.106 81.7688C153.041 81.8661 152.846 81.8985 152.78 81.8012C152.552 81.1853 152.129 80.7963 151.543 80.7963C150.989 80.7963 150.631 81.1529 150.631 81.6392C150.631 82.2227 151.217 82.5144 151.706 82.8061C152.455 83.2275 153.139 83.7138 153.139 84.6863C153.139 85.756 152.162 86.2746 151.12 86.2746C150.468 86.2746 149.98 86.145 149.622 85.8532C149.524 85.5939 149.426 84.9132 149.459 84.4269C149.524 84.3297 149.72 84.3297 149.785 84.4269C150.013 85.2049 150.468 85.8532 151.283 85.8532C151.804 85.8532 152.227 85.5615 152.227 84.9456C152.227 84.2973 151.673 83.9407 151.152 83.6489C150.338 83.1951 149.752 82.7089 149.752 81.9309C149.752 80.926 150.599 80.3425 151.673 80.3425C152.227 80.3749 152.748 80.5046 152.878 80.6343Z" fill="#234075"/>
<path d="M156.069 81.1529C155.841 81.1529 155.809 81.1853 155.809 81.4771V84.1028C155.809 84.9132 155.906 85.6587 156.818 85.6587C156.948 85.6587 157.079 85.6263 157.209 85.5939C157.339 85.5615 157.502 85.3994 157.567 85.3994C157.665 85.3994 157.73 85.5615 157.697 85.6263C157.437 85.9181 156.948 86.2746 156.232 86.2746C155.027 86.2746 154.767 85.5939 154.767 84.7511V81.5419C154.767 81.1529 154.767 81.1529 154.474 81.1529H154.083C153.985 81.0881 153.985 80.9584 154.05 80.8612C154.474 80.7315 154.799 80.5694 154.962 80.4398C155.157 80.2777 155.418 79.8887 155.548 79.6294C155.613 79.597 155.776 79.597 155.841 79.6942V80.3101C155.841 80.5694 155.841 80.5694 156.102 80.5694H157.665C157.828 80.6991 157.795 81.0881 157.665 81.1529H156.069Z" fill="#234075"/>
<path d="M164.34 83.9731C164.34 85.4318 164.372 85.6263 165.252 85.7236L165.642 85.756C165.74 85.8208 165.708 86.0477 165.61 86.1126C164.796 86.0801 164.34 86.0801 163.786 86.0801C163.2 86.0801 162.679 86.0801 162.061 86.1126C161.963 86.0801 161.963 85.8532 162.028 85.756L162.321 85.7236C163.135 85.6263 163.168 85.4318 163.168 83.9731V78.819C163.168 77.6196 163.135 77.3927 162.516 77.3279L161.995 77.263C161.898 77.1658 161.898 76.9713 162.028 76.9064C162.777 76.8092 163.656 76.8092 164.796 76.8092C165.935 76.8092 166.847 76.9713 167.498 77.3603C168.15 77.7817 168.638 78.4948 168.638 79.4673C168.638 80.7639 167.824 81.4123 167.238 81.704C166.619 81.9957 165.87 82.1254 165.284 82.1254C165.187 82.093 165.187 81.8661 165.284 81.8337C166.815 81.5419 167.336 80.6991 167.336 79.4997C167.336 78.1383 166.522 77.263 165.089 77.263C164.34 77.263 164.34 77.3279 164.34 77.7817V83.9731Z" fill="#234075"/>
<path d="M171.276 84.4917C171.276 85.4966 171.308 85.6263 171.797 85.7236L172.122 85.756C172.22 85.8208 172.188 86.0477 172.09 86.1125C171.634 86.0801 171.211 86.0801 170.722 86.0801C170.201 86.0801 169.811 86.0801 169.387 86.1125C169.29 86.0801 169.257 85.8208 169.355 85.756L169.68 85.7236C170.201 85.6587 170.201 85.5291 170.201 84.4917V78.1706C170.201 77.3602 170.201 77.263 169.778 77.0037L169.648 76.9064C169.583 76.874 169.583 76.6795 169.648 76.6147C170.006 76.5174 170.657 76.2905 171.178 76.0312C171.243 76.0312 171.276 76.0636 171.308 76.1284C171.308 76.5498 171.276 77.263 171.276 77.8465V84.4917Z" fill="#234075"/>
<path d="M175.802 83.1627C175.997 83.0979 176.03 82.9682 176.03 82.7413V82.093C176.03 81.5743 175.867 80.8612 175.02 80.8612C174.63 80.8612 174.141 81.0557 174.109 81.4771C174.109 81.704 174.076 81.8661 173.978 81.9633C173.783 82.1254 173.392 82.2227 173.164 82.2227C173.034 82.2227 172.969 82.1578 172.969 82.0282C172.969 81.315 174.565 80.3101 175.574 80.3101C176.583 80.3101 177.072 80.8936 177.039 81.9309L176.942 84.3621C176.909 85.0104 177.039 85.5939 177.593 85.5939C177.723 85.5939 177.853 85.5615 177.951 85.4967C178.016 85.4642 178.081 85.3994 178.146 85.3994C178.212 85.3994 178.244 85.4967 178.244 85.5939C178.244 85.6587 177.756 86.2098 177.072 86.2098C176.746 86.2098 176.388 86.0801 176.16 85.7884C176.095 85.6912 176.03 85.5939 175.932 85.5939C175.834 85.5939 175.672 85.7236 175.379 85.8857C175.086 86.0477 174.76 86.2422 174.369 86.2422C173.946 86.2422 173.62 86.145 173.392 85.9181C173.132 85.6912 172.969 85.3346 172.969 84.9456C172.969 84.3945 173.229 84.0704 174.141 83.7462L175.802 83.1627ZM174.923 85.6263C175.216 85.6263 175.639 85.4318 175.769 85.2697C175.932 85.1077 175.932 84.9132 175.965 84.6214L175.997 83.811C175.997 83.649 175.932 83.6165 175.867 83.6165C175.802 83.6165 175.541 83.6814 175.281 83.7462C174.467 84.038 174.044 84.2324 174.044 84.7835C174.044 85.0428 174.206 85.6263 174.923 85.6263Z" fill="#234075"/>
<path d="M183.291 80.6019C183.389 80.6991 183.487 80.926 183.487 81.1529C183.487 81.4123 183.357 81.6716 183.194 81.6716C183.129 81.6716 183.064 81.6392 182.998 81.5743C182.705 81.1853 182.184 80.8288 181.598 80.8288C180.621 80.8288 179.644 81.6067 179.644 83.0655C179.644 84.1676 180.393 85.4642 181.891 85.4642C182.705 85.4642 183.129 85.1077 183.454 84.6214C183.552 84.589 183.682 84.6863 183.715 84.8159C183.226 85.8532 182.184 86.2422 181.37 86.2422C180.621 86.2422 179.938 86.0153 179.449 85.5291C178.961 85.0428 178.635 84.3621 178.635 83.4545C178.635 81.9309 179.71 80.3425 182.022 80.3425C182.38 80.3749 182.933 80.4398 183.291 80.6019Z" fill="#234075"/>
<path d="M185.603 82.482C185.245 82.482 185.213 82.5144 185.213 82.871C185.213 84.2973 186.027 85.4966 187.557 85.4966C188.013 85.4966 188.404 85.367 188.86 84.8159C188.99 84.7835 189.088 84.8483 189.12 84.978C188.664 85.9181 187.655 86.2746 186.906 86.2746C185.994 86.2746 185.278 85.8856 184.854 85.367C184.431 84.8159 184.268 84.1676 184.268 83.5517C184.268 81.8337 185.408 80.4073 187.101 80.4073C188.306 80.4073 189.088 81.2177 189.088 82.0606C189.088 82.2551 189.055 82.3523 189.022 82.4171C188.99 82.5144 188.794 82.5144 188.208 82.5144H185.603V82.482ZM186.45 82.0606C187.492 82.0606 187.785 81.9957 187.915 81.9309C187.948 81.8985 188.013 81.8337 188.013 81.6716C188.013 81.2826 187.752 80.7963 186.938 80.7963C186.124 80.7963 185.408 81.5419 185.375 82.0281C185.375 82.0606 185.375 82.093 185.473 82.093H186.45V82.0606Z" fill="#234075"/>
<path d="M199.182 83.26C199.182 85.0104 197.977 86.2746 196.219 86.2746C194.591 86.2746 193.353 85.1401 193.353 83.3896C193.353 81.6392 194.688 80.3749 196.349 80.3749C197.912 80.3749 199.182 81.5419 199.182 83.26ZM196.154 80.7963C195.242 80.7963 194.526 81.6716 194.526 83.2275C194.526 84.4918 195.112 85.8856 196.349 85.8856C197.586 85.8856 197.977 84.589 197.977 83.5193C197.977 82.2875 197.489 80.7963 196.154 80.7963Z" fill="#234075"/>
<path d="M201.038 82.0605C201.038 81.5095 201.038 81.4447 200.647 81.1853L200.517 81.0881C200.452 81.0232 200.452 80.8936 200.517 80.8287C200.843 80.7315 201.657 80.3425 201.917 80.148C201.982 80.148 202.047 80.1804 202.08 80.2453C202.047 80.5694 202.047 80.7639 202.047 80.8936C202.047 80.9908 202.113 81.0557 202.21 81.0557C202.796 80.6991 203.448 80.3425 204.164 80.3425C205.336 80.3425 205.792 81.1529 205.792 82.0605V84.4593C205.792 85.4642 205.825 85.5939 206.313 85.6911L206.606 85.7235C206.704 85.7884 206.671 86.0153 206.574 86.0801C206.15 86.0477 205.76 86.0477 205.239 86.0477C204.718 86.0477 204.327 86.0477 203.936 86.0801C203.838 86.0477 203.806 85.7884 203.904 85.7235L204.164 85.6911C204.685 85.5939 204.685 85.4966 204.685 84.4593V82.3847C204.685 81.5743 204.327 80.9908 203.35 80.9908C202.829 80.9908 202.341 81.2177 202.145 81.4771C201.95 81.704 201.95 81.8985 201.95 82.3199V84.4593C201.95 85.4642 201.982 85.5939 202.471 85.6911L202.731 85.7235C202.829 85.7884 202.796 86.0153 202.699 86.0801C202.308 86.0477 201.917 86.0477 201.429 86.0477C200.908 86.0477 200.517 86.0477 200.094 86.0801C199.996 86.0477 199.963 85.7884 200.061 85.7235L200.354 85.6911C200.875 85.6263 200.875 85.4966 200.875 84.4593V82.0605H201.038Z" fill="#234075"/>
<path d="M212.337 78.9486C212.337 77.4899 212.305 77.2954 211.49 77.1982L211.263 77.1658C211.165 77.1009 211.197 76.874 211.295 76.8092C211.914 76.8416 212.37 76.8416 212.956 76.8416H215.593C216.505 76.8416 217.319 76.8416 217.482 76.8092C217.58 77.0361 217.645 78.041 217.71 78.6569C217.645 78.7542 217.417 78.7542 217.352 78.6893C217.156 78.041 217.026 77.5548 216.277 77.3603C215.984 77.2954 215.528 77.263 214.91 77.263H213.9C213.477 77.263 213.477 77.2954 213.477 77.8141V80.6019C213.477 80.9908 213.509 80.9909 213.933 80.9909H214.747C215.333 80.9909 215.756 80.9584 215.952 80.8936C216.147 80.8288 216.212 80.7639 216.277 80.4074L216.375 79.8239C216.44 79.7266 216.668 79.7266 216.733 79.8239C216.733 80.148 216.668 80.6991 216.668 81.2502C216.668 81.7688 216.733 82.2875 216.733 82.5792C216.668 82.6765 216.44 82.6765 216.375 82.5792L216.245 82.0282C216.179 81.7688 216.082 81.5743 215.821 81.5095C215.626 81.4447 215.3 81.4447 214.747 81.4447H213.933C213.509 81.4447 213.477 81.4447 213.477 81.8337V83.811C213.477 84.5566 213.509 85.0428 213.737 85.2697C213.9 85.4318 214.193 85.5939 215.431 85.5939C216.505 85.5939 216.928 85.5291 217.221 85.3994C217.482 85.2698 217.84 84.7835 218.231 84.0379C218.329 83.9731 218.524 84.0055 218.589 84.1352C218.491 84.6214 218.133 85.6912 217.97 86.0801C216.7 86.0477 215.463 86.0477 214.193 86.0477H212.923C212.305 86.0477 211.849 86.0477 211.002 86.0801C210.904 86.0477 210.904 85.8208 210.969 85.7236L211.425 85.6912C212.239 85.6263 212.305 85.3994 212.305 83.9407V78.9486H212.337Z" fill="#234075"/>
<path d="M222.073 83.1627C222.269 83.0979 222.301 82.9682 222.301 82.7413V82.093C222.301 81.5743 222.139 80.8612 221.292 80.8612C220.901 80.8612 220.413 81.0557 220.38 81.4771C220.38 81.704 220.348 81.8661 220.25 81.9633C220.055 82.1254 219.664 82.2227 219.436 82.2227C219.306 82.2227 219.24 82.1578 219.24 82.0282C219.24 81.315 220.836 80.3101 221.845 80.3101C222.855 80.3101 223.343 80.8936 223.311 81.9309L223.213 84.3621C223.181 85.0104 223.311 85.5939 223.864 85.5939C223.995 85.5939 224.125 85.5615 224.223 85.4967C224.288 85.4642 224.353 85.3994 224.418 85.3994C224.483 85.3994 224.516 85.4967 224.516 85.5939C224.516 85.6587 224.027 86.2098 223.343 86.2098C223.018 86.2098 222.66 86.0801 222.432 85.7884C222.366 85.6912 222.301 85.5939 222.204 85.5939C222.106 85.5939 221.943 85.7236 221.65 85.8857C221.357 86.0477 221.031 86.2422 220.641 86.2422C220.217 86.2422 219.892 86.145 219.664 85.9181C219.403 85.6912 219.24 85.3346 219.24 84.9456C219.24 84.3945 219.501 84.0704 220.413 83.7462L222.073 83.1627ZM221.227 85.6263C221.52 85.6263 221.943 85.4318 222.073 85.2697C222.236 85.1077 222.236 84.9132 222.269 84.6214L222.301 83.811C222.301 83.649 222.236 83.6165 222.171 83.6165C222.106 83.6165 221.845 83.6814 221.585 83.7462C220.771 84.038 220.348 84.2324 220.348 84.7835C220.315 85.0428 220.51 85.6263 221.227 85.6263Z" fill="#234075"/>
<path d="M225.818 82.0605C225.818 81.5095 225.818 81.4447 225.427 81.1853L225.297 81.0881C225.232 81.0232 225.232 80.8936 225.297 80.8287C225.623 80.7315 226.372 80.3425 226.73 80.148C226.795 80.148 226.828 80.1804 226.828 80.2453V81.0557C226.828 81.1205 226.828 81.1529 226.86 81.1853C227.349 80.7639 227.87 80.3425 228.391 80.3425C228.749 80.3425 229.009 80.5694 229.009 80.8936C229.009 81.3474 228.619 81.5419 228.391 81.5419C228.26 81.5419 228.195 81.5095 228.098 81.4446C227.902 81.315 227.674 81.2177 227.479 81.2177C227.251 81.2177 227.088 81.3474 226.958 81.5095C226.828 81.704 226.762 82.1254 226.762 82.5792V84.4917C226.762 85.4966 226.795 85.6587 227.316 85.7235L227.837 85.756C227.935 85.8208 227.902 86.0477 227.804 86.1125C227.153 86.0801 226.73 86.0801 226.241 86.0801C225.72 86.0801 225.33 86.0801 224.939 86.1125C224.841 86.0801 224.809 85.8208 224.906 85.756L225.167 85.7235C225.688 85.6263 225.688 85.529 225.688 84.4917V82.0605H225.818Z" fill="#234075"/>
<path d="M231.744 81.1529C231.517 81.1529 231.484 81.1853 231.484 81.4771V84.1028C231.484 84.9132 231.582 85.6587 232.493 85.6587C232.624 85.6587 232.754 85.6263 232.884 85.5939C233.014 85.5615 233.177 85.3994 233.242 85.3994C233.34 85.3994 233.405 85.5615 233.373 85.6263C233.112 85.9181 232.624 86.2746 231.907 86.2746C230.702 86.2746 230.442 85.5939 230.442 84.7511V81.5419C230.442 81.1529 230.442 81.1529 230.149 81.1529H229.758C229.66 81.0881 229.66 80.9584 229.726 80.8612C230.149 80.7315 230.475 80.5694 230.637 80.4398C230.833 80.2777 231.093 79.8887 231.223 79.6294C231.289 79.597 231.451 79.597 231.517 79.6942V80.3101C231.517 80.5694 231.517 80.5694 231.777 80.5694H233.34C233.503 80.6991 233.47 81.0881 233.34 81.1529H231.744Z" fill="#234075"/>
<path d="M234.74 78.2031C234.74 77.3927 234.74 77.2954 234.317 77.0361L234.187 76.9388C234.121 76.9064 234.121 76.7119 234.187 76.6471C234.545 76.5498 235.196 76.3229 235.717 76.0636C235.782 76.0636 235.815 76.096 235.847 76.1609C235.847 76.5823 235.815 77.2954 235.815 77.8789V80.8287C235.815 80.9584 235.815 81.0556 235.88 81.0881C236.401 80.6991 237.052 80.3749 237.768 80.3749C239.104 80.3749 239.592 81.1853 239.592 82.1902V84.5242C239.592 85.529 239.625 85.6911 240.113 85.756L240.504 85.7884C240.601 85.8532 240.569 86.0801 240.471 86.1449C239.95 86.1125 239.559 86.1125 239.071 86.1125C238.55 86.1125 238.159 86.1125 237.768 86.1449C237.671 86.1125 237.638 85.8532 237.736 85.7884L238.029 85.756C238.55 85.6587 238.55 85.5615 238.55 84.5242V82.5144C238.55 81.6067 238.127 81.0232 237.215 81.0232C236.726 81.0232 236.368 81.1853 236.108 81.4122C235.847 81.6067 235.815 81.704 235.815 82.1902V84.5242C235.815 85.529 235.847 85.6587 236.336 85.756L236.629 85.7884C236.726 85.8532 236.694 86.0801 236.596 86.1449C236.173 86.1125 235.782 86.1125 235.261 86.1125C234.74 86.1125 234.349 86.1125 233.894 86.1449C233.796 86.1125 233.763 85.8532 233.861 85.7884L234.219 85.756C234.74 85.6911 234.74 85.5615 234.74 84.5242V78.2031Z" fill="#234075"/>
</svg>
