<svg width="162" height="96" viewBox="0 0 162 96" fill="none" xmlns="http://www.w3.org/2000/svg">
<path d="M78.4222 75.9362C98.0705 70.8974 112.7 61.332 111.1 54.5722C110.202 50.7747 104.372 48.6696 95.9484 48.4474C106.218 48.1299 113.562 50.2586 114.579 54.5604C116.179 61.3202 101.546 70.8856 81.9008 75.9244C73.2919 78.1328 65.1509 79.1038 58.5845 78.9326C64.4531 78.7496 71.2756 77.7683 78.4222 75.9362Z" fill="#8B0E04"/>
<path d="M100.237 66.9535C70.3452 71.369 46.6224 70.99 47.2523 66.1054C47.6077 63.3612 55.5737 59.7794 67.7892 56.3845C52.7498 60.1545 42.582 64.3361 42.1834 67.4435C41.5535 72.3268 65.2737 72.7071 95.1642 68.2903C108.264 66.3563 120.371 63.8212 129.896 61.175C121.299 63.3286 111.108 65.3462 100.237 66.9535Z" fill="#8B0E04"/>
<path d="M102.822 29.3703H97.5438C97.5438 29.3703 97.2041 32.4163 97.5438 32.5039C97.8849 32.5901 101.761 31.7747 101.761 31.7747L102.822 29.3703Z" fill="url(#paint0_linear_70_143)"/>
<path d="M97.544 24.9938H93.1298L92.019 33.9803C92.019 33.9803 96.5822 33.1989 96.5822 32.9375C96.5822 32.6775 97.544 24.9938 97.544 24.9938Z" fill="url(#paint1_linear_70_143)"/>
<path d="M95.1106 15.8585H90.6964L89.5857 24.845C89.5857 24.845 94.1489 24.0635 94.1489 23.8035C94.1489 23.5435 95.1106 15.8585 95.1106 15.8585Z" fill="url(#paint2_linear_70_143)"/>
<path d="M89.8746 3.30965H87.2023L81.0449 16.8684C81.0449 16.8684 80.611 17.974 79.5683 17.4591C78.5202 16.9417 75.8505 15.6584 75.8505 15.6584H72.9561L75.388 29.3701C75.388 29.3701 75.0678 30.686 73.8904 29.5439C72.7157 28.4018 69.2162 24.6972 69.2162 24.6972H66.3544L64.3564 30.0092C64.3564 30.0092 64.5655 30.4521 63.115 30.4521C61.6645 30.4521 55.3934 28.8736 55.3934 28.8736L53.4045 30.409L56.7145 40.0136C56.7145 40.0136 57.1353 41.0106 56.1814 41.3426C55.2274 41.6719 53.2673 42.3958 53.2673 42.3958L52.022 45.1178L64.1826 56.3636C64.1826 56.3636 65.0777 57.0615 64.4243 57.5698C63.767 58.0755 68.5066 57.9017 68.5066 57.9017L79.9054 44.1429L86.6234 16.5209L89.8746 3.30965Z" fill="url(#paint3_linear_70_143)"/>
<path d="M89.8916 19.8492L89.8746 3.30974L84.2412 17.1469C84.2412 17.1469 83.5173 19.4742 80.9613 18.1636C78.4066 16.8529 75.8506 15.6585 75.8506 15.6585L89.5492 34.4482L89.8916 19.8492Z" fill="url(#paint4_linear_70_143)"/>
<path d="M95.1119 15.8585C95.1119 15.8585 94.1083 17.0163 93.1034 18.2917C92.0972 19.5644 91.8489 17.2267 91.8489 17.2267L89.8745 3.30974L89.5491 34.4482L95.1119 15.8585Z" fill="url(#paint5_linear_70_143)"/>
<path d="M75.8505 15.6585L78.1595 29.4616C78.1595 29.4616 78.7214 31.5694 77.3153 31.9053C75.9119 32.2411 69.2161 24.6972 69.2161 24.6972L67.5265 30.051C67.5265 30.051 67.1606 31.3303 65.5324 30.9631C63.9002 30.5972 55.3933 28.8736 55.3933 28.8736L85.4969 56.5519C86.8259 56.1011 88.1091 55.6136 89.3335 55.0883L89.3544 53.2732L89.6314 44.0332L89.5295 34.4482L75.8505 15.6585Z" fill="url(#paint6_linear_70_143)"/>
<path d="M83.8947 55.0791L55.3932 28.8735L58.677 38.5983C58.677 38.5983 59.3605 40.3585 57.4866 40.923C55.6114 41.4862 53.2671 42.3958 53.2671 42.3958L65.7635 53.3868C65.7635 53.3868 67.9745 54.9366 66.2 56.195L64.8736 57.1633L62.2863 59.2188C67.2206 59.8487 73.0526 59.5978 79.1368 58.295C81.3531 57.8193 83.4817 57.2313 85.4968 56.5518L83.8947 55.0791Z" fill="url(#paint7_linear_70_143)"/>
<path d="M98.8756 31.3132C98.2432 31.6556 98.1203 30.3698 98.1203 30.3698L97.544 24.9938C97.544 24.9938 94.8482 32.4383 94.3098 32.0816C93.7754 31.7275 94.021 29.6275 94.021 29.6275L95.1122 15.8583L89.5494 34.4481L89.3546 53.2731L89.3337 55.0883C90.2615 54.691 91.158 54.2729 92.0191 53.839L92.9573 51.7076L102.822 29.3701C102.822 29.3701 99.5133 30.9695 98.8756 31.3132Z" fill="url(#paint8_linear_70_143)"/>
<path d="M101.841 41.3869C101.124 40.7949 101.416 39.0466 101.416 39.0466L102.822 29.3701L92.9573 51.7076L92.019 53.839C96.3483 51.6476 99.6635 48.7243 101.795 45.9632L102.435 45.1177L103.448 42.921C103.448 42.921 102.555 41.9776 101.841 41.3869Z" fill="url(#paint9_linear_70_143)"/>
<path d="M62.2864 59.219C62.2864 59.219 93.0185 64.5153 103.663 43.0872L103.058 42.5201C103.058 42.5201 100.118 58.8035 64.8737 57.1635L62.2864 59.219Z" fill="url(#paint10_linear_70_143)"/>
<path d="M62.2864 59.219C62.2864 59.219 93.0185 64.5153 103.663 43.0872L103.058 42.5201C103.058 42.5201 98.5617 61.1478 63.499 58.2547L62.2864 59.219Z" fill="url(#paint11_linear_70_143)"/>
<path d="M103.085 48.2004H102.307C102.307 48.2004 101.458 53.839 95.3368 55.8096C89.0932 57.8207 59.0955 66.1159 59.0955 66.1159L59.6155 66.2622L77.8003 62.2244L102.631 54.5942C102.631 54.5942 103.146 49.5619 103.217 49.4522C103.288 49.3424 103.085 48.2004 103.085 48.2004Z" fill="url(#paint12_linear_70_143)"/>
<path d="M59.0955 66.1159L58.2161 67.2632L58.6159 67.5089L59.6156 66.2622L59.0955 66.1159Z" fill="url(#paint13_linear_70_143)"/>
<path d="M59.6154 66.2622C59.6154 66.2622 87.3577 58.6766 91.6909 57.4705C95.8868 56.3009 101.604 55.1627 102.866 48.6499C102.908 48.4382 102.879 48.2082 103.084 48.2004C103.171 48.2004 103.205 48.2304 103.303 48.3271C103.628 48.676 104.138 49.2849 104.548 50.0507C104.628 50.1996 104.899 50.6361 104.899 50.6361L104.801 51.2934L105.222 51.7469L104.91 52.3401L105.158 52.9399L104.795 53.4326L104.911 53.9213C104.143 55.7377 101.755 57.5985 96.0776 58.9039C80.9494 62.3786 58.6157 67.5089 58.6157 67.5089L59.6154 66.2622Z" fill="url(#paint14_linear_70_143)"/>
<path d="M32.0992 84.5502C32.0025 84.3843 31.9333 84.2876 31.8784 84.2327C31.2694 83.527 30.1365 83.3755 29.2793 83.3755C29.1277 83.3755 28.8376 83.3755 28.4639 83.4303C28.3815 83.4447 27.0957 83.5414 27.0957 84.5084C27.0957 85.0063 27.442 85.2141 27.8706 85.3513C28.5606 85.559 30.3025 85.8073 31.0068 85.9458C31.6981 86.07 32.0025 86.1392 32.3344 86.2503C32.9003 86.4437 34.3103 86.9416 34.2972 88.7514C34.2972 89.6361 33.9783 91.0317 31.9882 91.6681C31.4498 91.834 30.9245 91.902 30.3717 91.9582C30.0267 91.9856 29.6804 92 29.3355 92C27.5936 92 26.6266 91.6406 25.9353 91.2669C25.8242 91.212 25.5485 91.0461 25.2584 90.8252C24.7187 90.3966 24.3319 89.8295 24.2352 89.6635C24.1385 89.525 24.0693 89.3878 24 89.2493L26.2254 88.6822C26.8056 89.8987 28.3123 90.2032 29.5014 90.2032C29.5981 90.2032 30.8278 90.2163 31.4916 89.7602C31.6157 89.6779 31.9607 89.4009 31.9607 88.9174C31.9607 88.6547 31.8509 88.4195 31.6432 88.2679C31.3387 88.0327 30.7036 87.936 29.819 87.7975C28.0222 87.5218 27.0552 87.3833 26.2672 87.0108C25.8242 86.8031 24.7331 86.1667 24.7331 84.6887C24.7331 83.3898 25.5341 82.7404 25.9209 82.4777C26.5429 82.0491 27.5517 81.6336 29.2936 81.6336C30.9519 81.6336 31.8366 81.9237 32.5278 82.2556C32.7761 82.3666 33.2466 82.5875 33.7444 83.0854C34.062 83.4029 34.1861 83.5963 34.407 83.97L32.0992 84.5502Z" fill="#231F20"/>
<path d="M43.0302 91.6956L39.2158 87.4944L37.7365 88.7658V91.6956H35.3047V81.9381H37.7365V86.2085L42.4905 81.9381H45.6424L40.8884 86.0569L46.3062 91.6956H43.0302Z" fill="#231F20"/>
<path d="M51.0863 84.3163L49.3588 88.1307H52.7864L51.0863 84.3163ZM54.4029 91.6968L53.5744 89.8582H48.5708L47.741 91.6968H45.074L49.7874 81.9393H52.4271L57.1392 91.6968H54.4029Z" fill="#231F20"/>
<path d="M61.2999 83.7217V91.6968H58.8393V83.7217H55.2183V81.9393H64.9078V83.7217H61.2999Z" fill="#231F20"/>
<path d="M65.501 91.6956V81.9381H74.5946V83.693H67.9472V85.891H74.3738V87.6329H67.9472V89.9537H74.8717V91.6956H65.501Z" fill="#231F20"/>
<path d="M84.309 90.8396C83.687 91.2956 82.5946 91.9451 80.7429 91.9451C78.9605 91.9451 77.9373 91.3923 77.3297 90.9506C76.0033 89.9693 75.2559 88.4482 75.2559 86.7769C75.2559 86.1679 75.3395 84.8416 76.3901 83.5832C77.8824 81.7877 79.9837 81.6348 80.7573 81.6348C81.3649 81.6348 83.1617 81.7459 84.5717 83.0304C85.0134 83.4316 85.276 83.8184 85.5936 84.3163L84.7651 84.7723C84.6814 84.6338 84.4057 84.1359 84.0045 83.7361C82.8716 82.5744 81.2682 82.5051 80.7847 82.5051C80.245 82.5051 78.656 82.6018 77.4682 83.8184C76.3901 84.9239 76.2934 86.3339 76.2934 86.8448C76.2934 87.3845 76.3901 88.7252 77.5087 89.8307C78.6978 91.0186 80.2594 91.0878 80.7978 91.0878C81.4616 91.0878 83.0924 90.9911 84.3639 89.5537C84.5717 89.3185 84.6958 89.1669 85.0003 88.669L85.8431 89.0702C85.6079 89.4714 85.2211 90.1627 84.309 90.8396Z" fill="#231F20"/>
<path d="M90.8454 82.8096L88.109 88.3933H93.6366L90.8454 82.8096ZM95.2818 91.6968L94.0247 89.1669H87.7353L86.4926 91.6968H85.5112L90.3201 81.9393H91.3707L96.2906 91.6968H95.2818Z" fill="#231F20"/>
<path d="M106.061 91.6956L97.6994 83.1821V91.6956H96.8291V81.9381H97.6994L106.061 90.4933V81.9381H106.932V91.6956H106.061Z" fill="#231F20"/>
<path d="M112.791 82.8096L110.055 88.3933H115.583L112.791 82.8096ZM117.227 91.6968L115.97 89.1669H109.681L108.438 91.6968H107.457L112.266 81.9393H113.316L118.236 91.6968H117.227Z" fill="#231F20"/>
<path d="M125.436 83.0161C124.8 82.7809 124.317 82.7404 123.654 82.7404H119.743V90.8801H122.852C124.165 90.8801 125.644 90.8527 126.666 89.8844C127.191 89.3878 127.772 88.5032 127.772 86.8998C127.772 85.2559 127.08 83.6238 125.436 83.0161ZM128.56 88.3647C128.228 89.5943 127.441 90.6593 126.266 91.1977C125.271 91.6537 124.247 91.6956 123.198 91.6956H118.775V81.9381H123.654C123.944 81.9381 124.234 81.9381 124.524 81.9655C125.491 82.0348 126.321 82.3118 127.095 82.9469C128.671 84.2458 128.753 86.236 128.753 86.8449C128.753 87.0788 128.74 87.7021 128.56 88.3647Z" fill="#231F20"/>
<path d="M133.549 82.8096L130.812 88.3933H136.34L133.549 82.8096ZM137.985 91.6968L136.728 89.1669H130.439L129.196 91.6968H128.215L133.023 81.9393H134.074L138.994 91.6968H137.985Z" fill="#231F20"/>
<defs>
<linearGradient id="paint0_linear_70_143" x1="100.562" y1="48.7599" x2="99.3463" y2="0.114637" gradientUnits="userSpaceOnUse">
<stop stop-color="white"/>
<stop offset="0.245399" stop-color="#ABADB0"/>
<stop offset="0.319018" stop-color="white"/>
<stop offset="1" stop-color="#231F20"/>
</linearGradient>
<linearGradient id="paint1_linear_70_143" x1="95.2663" y1="48.8891" x2="94.0504" y2="0.249159" gradientUnits="userSpaceOnUse">
<stop stop-color="white"/>
<stop offset="0.245399" stop-color="#ABADB0"/>
<stop offset="0.319018" stop-color="white"/>
<stop offset="1" stop-color="#231F20"/>
</linearGradient>
<linearGradient id="paint2_linear_70_143" x1="92.833" y1="39.7549" x2="91.6171" y2="-8.88461" gradientUnits="userSpaceOnUse">
<stop stop-color="white"/>
<stop offset="0.245399" stop-color="#ABADB0"/>
<stop offset="0.319018" stop-color="white"/>
<stop offset="1" stop-color="#231F20"/>
</linearGradient>
<linearGradient id="paint3_linear_70_143" x1="70.881" y1="3.02347" x2="71.0547" y2="57.4862" gradientUnits="userSpaceOnUse">
<stop stop-color="white"/>
<stop offset="0.245399" stop-color="#ABADB0"/>
<stop offset="0.319018" stop-color="white"/>
<stop offset="1" stop-color="#231F20"/>
</linearGradient>
<linearGradient id="paint4_linear_70_143" x1="75.8179" y1="18.7333" x2="89.9021" y2="18.8812" gradientUnits="userSpaceOnUse">
<stop stop-color="#E31836"/>
<stop offset="1" stop-color="#8C0E05"/>
</linearGradient>
<linearGradient id="paint5_linear_70_143" x1="96.2605" y1="18.8783" x2="87.7134" y2="18.8783" gradientUnits="userSpaceOnUse">
<stop stop-color="#E31836"/>
<stop offset="1" stop-color="#8C0E05"/>
</linearGradient>
<linearGradient id="paint6_linear_70_143" x1="84.5417" y1="28.4633" x2="71.7883" y2="42.6193" gradientUnits="userSpaceOnUse">
<stop stop-color="#E31836"/>
<stop offset="1" stop-color="#8C0E05"/>
</linearGradient>
<linearGradient id="paint7_linear_70_143" x1="42.8392" y1="35.862" x2="81.7372" y2="55.7572" gradientUnits="userSpaceOnUse">
<stop stop-color="#E31836"/>
<stop offset="1" stop-color="#8C0E05"/>
</linearGradient>
<linearGradient id="paint8_linear_70_143" x1="91.1723" y1="29.4106" x2="96.296" y2="42.7983" gradientUnits="userSpaceOnUse">
<stop stop-color="#E31836"/>
<stop offset="1" stop-color="#8C0E05"/>
</linearGradient>
<linearGradient id="paint9_linear_70_143" x1="95.2924" y1="40.075" x2="104.348" y2="46.5798" gradientUnits="userSpaceOnUse">
<stop stop-color="#E31836"/>
<stop offset="1" stop-color="#8C0E05"/>
</linearGradient>
<linearGradient id="paint10_linear_70_143" x1="104.839" y1="46.4429" x2="62.9502" y2="61.1164" gradientUnits="userSpaceOnUse">
<stop stop-color="white"/>
<stop offset="0.245399" stop-color="#ABADB0"/>
<stop offset="0.319018" stop-color="white"/>
<stop offset="1" stop-color="#231F20"/>
</linearGradient>
<linearGradient id="paint11_linear_70_143" x1="105.704" y1="56.3638" x2="57.9623" y2="44.9747" gradientUnits="userSpaceOnUse">
<stop stop-color="white"/>
<stop offset="0.245399" stop-color="#ABADB0"/>
<stop offset="0.319018" stop-color="white"/>
<stop offset="1" stop-color="#231F20"/>
</linearGradient>
<linearGradient id="paint12_linear_70_143" x1="101.151" y1="52.2892" x2="55.3498" y2="47.0327" gradientUnits="userSpaceOnUse">
<stop stop-color="#E4E5E6"/>
<stop offset="0.245399" stop-color="#ABADB0"/>
<stop offset="0.319018" stop-color="white"/>
<stop offset="1" stop-color="#231F20"/>
</linearGradient>
<linearGradient id="paint13_linear_70_143" x1="60.6649" y1="61.1801" x2="60.9953" y2="73.1771" gradientUnits="userSpaceOnUse">
<stop stop-color="white"/>
<stop offset="0.245399" stop-color="#ABADB0"/>
<stop offset="0.319018" stop-color="white"/>
<stop offset="1" stop-color="#231F20"/>
</linearGradient>
<linearGradient id="paint14_linear_70_143" x1="58.6157" y1="57.8546" x2="105.222" y2="57.8546" gradientUnits="userSpaceOnUse">
<stop stop-color="white"/>
<stop offset="0.245399" stop-color="#ABADB0"/>
<stop offset="0.319018" stop-color="white"/>
<stop offset="1" stop-color="#231F20"/>
</linearGradient>
</defs>
</svg>
